<svg width="53" height="27" viewBox="0 0 53 27" fill="none" xmlns="http://www.w3.org/2000/svg">
<path d="M4.36364 21.625C4.17075 21.625 3.98577 21.6984 3.84938 21.829C3.71299 21.9596 3.63636 22.1367 3.63636 22.3214C3.63636 22.5061 3.71299 22.6833 3.84938 22.8139C3.98577 22.9445 4.17075 23.0179 4.36364 23.0179H11.6364C11.8292 23.0179 12.0142 22.9445 12.1506 22.8139C12.287 22.6833 12.3636 22.5061 12.3636 22.3214C12.3636 22.1367 12.287 21.9596 12.1506 21.829C12.0142 21.6984 11.8292 21.625 11.6364 21.625H4.36364ZM3.63636 19.5357C3.63636 19.351 3.71299 19.1739 3.84938 19.0433C3.98577 18.9127 4.17075 18.8393 4.36364 18.8393H11.6364C11.8292 18.8393 12.0142 18.9127 12.1506 19.0433C12.287 19.1739 12.3636 19.351 12.3636 19.5357C12.3636 19.7204 12.287 19.8976 12.1506 20.0282C12.0142 20.1588 11.8292 20.2321 11.6364 20.2321H4.36364C4.17075 20.2321 3.98577 20.1588 3.84938 20.0282C3.71299 19.8976 3.63636 19.7204 3.63636 19.5357ZM4.36364 16.0536C4.17075 16.0536 3.98577 16.1269 3.84938 16.2576C3.71299 16.3882 3.63636 16.5653 3.63636 16.75C3.63636 16.9347 3.71299 17.1118 3.84938 17.2425C3.98577 17.3731 4.17075 17.4464 4.36364 17.4464H11.6364C11.8292 17.4464 12.0142 17.3731 12.1506 17.2425C12.287 17.1118 12.3636 16.9347 12.3636 16.75C12.3636 16.5653 12.287 16.3882 12.1506 16.2576C12.0142 16.1269 11.8292 16.0536 11.6364 16.0536H4.36364ZM0 9.08929C0 8.53517 0.22987 8.00375 0.63904 7.61194C1.04821 7.22012 1.60316 7 2.18182 7H9.57964C10.158 7.0003 10.7126 7.22049 11.1215 7.61216L15.3615 11.6709C15.7704 12.0628 16.0001 12.5941 16 13.1481V24.4107C16 24.9648 15.7701 25.4962 15.361 25.8881C14.9518 26.2799 14.3968 26.5 13.8182 26.5H2.18182C1.60316 26.5 1.04821 26.2799 0.63904 25.8881C0.22987 25.4962 0 24.9648 0 24.4107V9.08929ZM2.18182 8.39286C1.98893 8.39286 1.80395 8.46623 1.66756 8.59684C1.53117 8.72744 1.45455 8.90458 1.45455 9.08929V24.4107C1.45455 24.5954 1.53117 24.7726 1.66756 24.9032C1.80395 25.0338 1.98893 25.1071 2.18182 25.1071H13.8182C14.0111 25.1071 14.1961 25.0338 14.3324 24.9032C14.4688 24.7726 14.5455 24.5954 14.5455 24.4107V13.9643H10.9091C10.3304 13.9643 9.77548 13.7442 9.36631 13.3523C8.95714 12.9605 8.72727 12.4291 8.72727 11.875V8.39286H2.18182ZM10.9091 12.5714H14.2444L10.1818 8.68118V11.875C10.1818 12.0597 10.2584 12.2368 10.3948 12.3674C10.5312 12.4981 10.7162 12.5714 10.9091 12.5714Z" fill="white"/>
<path d="M45 12.625V7H38.5C38.1022 7 37.7206 7.15804 37.4393 7.43934C37.158 7.72064 37 8.10218 37 8.5V25C37 25.3978 37.158 25.7794 37.4393 26.0607C37.7206 26.342 38.1022 26.5 38.5 26.5H51.5C51.8978 26.5 52.2794 26.342 52.5607 26.0607C52.842 25.7794 53 25.3978 53 25V14.5H46.875C46.3777 14.5 45.9008 14.3025 45.5492 13.9508C45.1975 13.5992 45 13.1223 45 12.625ZM41.125 16.5H48.875C49.0408 16.5 49.1997 16.5658 49.3169 16.6831C49.4342 16.8003 49.5 16.9592 49.5 17.125C49.5 17.2908 49.4342 17.4497 49.3169 17.5669C49.1997 17.6842 49.0408 17.75 48.875 17.75H41.125C40.9592 17.75 40.8003 17.6842 40.6831 17.5669C40.5658 17.4497 40.5 17.2908 40.5 17.125C40.5 16.9592 40.5658 16.8003 40.6831 16.6831C40.8003 16.5658 40.9592 16.5 41.125 16.5ZM40.5 20.125C40.5 19.78 40.78 19.5 41.125 19.5H48.875C49.0408 19.5 49.1997 19.5658 49.3169 19.6831C49.4342 19.8003 49.5 19.9592 49.5 20.125C49.5 20.2908 49.4342 20.4497 49.3169 20.5669C49.1997 20.6842 49.0408 20.75 48.875 20.75H41.125C40.78 20.75 40.5 20.47 40.5 20.125ZM41.125 22.5H48.875C49.0408 22.5 49.1997 22.5658 49.3169 22.6831C49.4342 22.8003 49.5 22.9592 49.5 23.125C49.5 23.2908 49.4342 23.4497 49.3169 23.5669C49.1997 23.6842 49.0408 23.75 48.875 23.75H41.125C40.9592 23.75 40.8003 23.6842 40.6831 23.5669C40.5658 23.4497 40.5 23.2908 40.5 23.125C40.5 22.9592 40.5658 22.8003 40.6831 22.6831C40.8003 22.5658 40.9592 22.5 41.125 22.5ZM46.25 12.625V7.232L52.731 13.25H46.875C46.53 13.25 46.25 12.97 46.25 12.625Z" fill="black"/>
<path d="M31.86 3.6C30.01 2 27.61 1 24.96 1C20.31 1 16.38 4.03 15 8.22L17.36 9C17.8864 7.39983 18.9045 6.00666 20.2692 5.01907C21.6339 4.03147 23.2755 3.49986 24.96 3.5C26.91 3.5 28.69 4.22 30.08 5.38L26.46 9H35.46V0L31.86 3.6Z" fill="#737373"/>
</svg>
