<svg width="32" height="38" viewBox="0 0 32 38" fill="none" xmlns="http://www.w3.org/2000/svg">
<path d="M18.5263 0V10.1786C18.5263 11.0784 18.859 11.9414 19.4512 12.5777C20.0435 13.214 20.8467 13.5714 21.6842 13.5714H32V32.5714C32 33.2913 31.7338 33.9817 31.2601 34.4907C30.7863 34.9997 30.1437 35.2857 29.4737 35.2857H17.8931C19.3985 33.2201 20.2147 30.6711 20.2105 28.0476C20.2105 21.5514 15.3095 16.2857 9.26316 16.2857C7.77095 16.2857 6.34947 16.6069 5.05263 17.1869V2.71429C5.05263 1.99441 5.3188 1.30402 5.79257 0.794996C6.26635 0.285969 6.90893 0 7.57895 0H18.5263ZM20.6316 0.41981V10.1786C20.6316 10.8029 21.1032 11.3095 21.6842 11.3095H31.5469L20.6316 0.41981ZM18.5263 28.0476C18.5263 33.544 14.3789 38 9.26316 38C4.14737 38 0 33.544 0 28.0476C0 22.5512 4.14737 18.0952 9.26316 18.0952C14.3789 18.0952 18.5263 22.5512 18.5263 28.0476ZM10.1053 21.7143C10.1053 21.4743 10.0165 21.2442 9.85862 21.0745C9.70069 20.9048 9.4865 20.8095 9.26316 20.8095C9.03982 20.8095 8.82563 20.9048 8.6677 21.0745C8.50977 21.2442 8.42105 21.4743 8.42105 21.7143V27.1429H3.36842C3.14508 27.1429 2.93089 27.2382 2.77296 27.4079C2.61504 27.5775 2.52632 27.8077 2.52632 28.0476C2.52632 28.2876 2.61504 28.5177 2.77296 28.6874C2.93089 28.8571 3.14508 28.9524 3.36842 28.9524H8.42105V34.381C8.42105 34.6209 8.50977 34.851 8.6677 35.0207C8.82563 35.1904 9.03982 35.2857 9.26316 35.2857C9.4865 35.2857 9.70069 35.1904 9.85862 35.0207C10.0165 34.851 10.1053 34.6209 10.1053 34.381V28.9524H15.1579C15.3812 28.9524 15.5954 28.8571 15.7534 28.6874C15.9113 28.5177 16 28.2876 16 28.0476C16 27.8077 15.9113 27.5775 15.7534 27.4079C15.5954 27.2382 15.3812 27.1429 15.1579 27.1429H10.1053V21.7143Z" fill="black"/>
</svg>
