<svg width="64" height="74" viewBox="0 0 64 74" fill="none" xmlns="http://www.w3.org/2000/svg">
<rect x="11.9067" y="14.1699" width="37.9535" height="24.4043" fill="white"/>
<rect x="14.1396" y="38.5747" width="35.7209" height="27.5532" fill="black"/>
<path fill-rule="evenodd" clip-rule="evenodd" d="M64 20.6673L41.6568 0H0V74H64V20.6673ZM34.0001 24.975C32.3431 24.975 31.0001 26.2173 31.0001 27.75C31.0001 29.2826 32.3431 30.525 34.0001 30.525C35.657 30.525 37.0001 29.2826 37.0001 27.75C37.0001 26.2173 35.6568 24.975 34.0001 24.975ZM38.9999 27.75C38.9999 26.2173 40.3432 24.975 41.9999 24.975C43.6567 24.975 44.9999 26.2173 44.9999 27.75C44.9999 29.2826 43.6569 30.525 41.9999 30.525C40.343 30.525 38.9999 29.2826 38.9999 27.75ZM18 47.175C16.3432 47.175 15 48.4173 15 49.95C15 51.4826 16.3432 52.725 18 52.725C19.6567 52.725 21 51.4826 21 49.95C21 48.4173 19.6569 47.175 18 47.175ZM23 49.95C23 48.4173 24.3431 47.175 26 47.175C27.6569 47.175 29 48.4173 29 49.95C29 51.4826 27.6569 52.725 26 52.725C24.3431 52.725 23 51.4826 23 49.95ZM25.172 17.4192L28.0004 20.0355L19.5142 27.8828L28.0104 35.742L25.1819 38.3583L13.8682 27.8931L25.172 17.4192ZM38.6966 39.4759L50.0003 49.95L38.6866 60.4152L35.8582 57.7989L44.3544 49.9396L35.8681 42.0922L38.6966 39.4759Z" fill="#FC2865"/>
</svg>
